<?xml version="1.0" encoding="UTF-8"?><svg id="Final" xmlns="http://www.w3.org/2000/svg" xmlns:xlink="http://www.w3.org/1999/xlink" viewBox="0 0 158.32 29.41"><defs><linearGradient id="linear-gradient" x1="16" y1=".41" x2="16" y2="28.41" gradientUnits="userSpaceOnUse"><stop offset="0" stop-color="#fede5d"/><stop offset=".37" stop-color="#fedb5d"/><stop offset=".54" stop-color="#fed45d"/><stop offset=".67" stop-color="#fec75d"/><stop offset=".78" stop-color="#feb55d"/><stop offset=".88" stop-color="#fe9d5d"/><stop offset=".96" stop-color="#fe805d"/><stop offset="1" stop-color="#ff725d"/></linearGradient></defs><path d="M27.42,13.92v7.43h-2.11v-7.43h-3.03v-1.92h7.49C28.63,5.42,22.91.41,16,.41,8.27.41,2,6.68,2,14.41s6.27,14,14,14,14-6.27,14-14c0-.17-.02-.33-.02-.49h-2.55ZM11.76,21.47c-1.33,0-2.19-.37-3.56-1.33l.64-1.81c1.31.77,2.13,1.17,2.79,1.17.92,0,2.01-.33,2.01-1.08,0-.81-1.39-.91-1.97-.97-1.52-.19-3.51-.53-3.51-2.72,0-2.47,2.32-2.96,3.67-2.96,1.24,0,2.36.4,3.57,1.27l-.61,1.69c-1.04-.68-2.04-1-2.96-1-1.43,0-1.76.57-1.76.92,0,.67,1.53.81,1.95.81,1.4.15,3.56.41,3.56,2.96s-2.36,3.05-3.81,3.05ZM20.09,21.35h-2.08v-9.35h2.08v9.35Z" style="fill:url(#linear-gradient);"/><path d="M32.33,12h6.55v1.92h-4.47c0,.61-.01,1.23-.01,1.85h3.79v1.87h-3.77v1.77h4.61v1.93h-6.71v-9.35Z" style="fill:#fff;"/><path d="M43.51,15.92h3.51v1.93h-3.51v3.49h-2.07v-9.35h6.4v1.92h-4.33v2Z" style="fill:#fff;"/><path d="M50.27,12h2.08v9.35h-2.08v-9.35Z" style="fill:#fff;"/><path d="M57.03,16.03c0,1.77-.01,3.56-.01,5.32h-2.01v-9.35h1.25l4.49,5.08v-5.08h2v9.35h-1l-4.72-5.32Z" style="fill:#fff;"/><path d="M65.48,12h2.08v9.35h-2.08v-9.35Z" style="fill:#fff;"/><path d="M74.89,21.35h-2.11v-7.43h-3.03v-1.92h8.15v1.92h-3.01v7.43Z" style="fill:#fff;"/><path d="M84.54,21.35h-2.11v-3.6l-3.04-5.39v-.36h2.05l2.19,3.87,2.05-3.87h1.91v.35l-3.05,5.48v3.52Z" style="fill:#fff;"/><path d="M92.82,21.47c-1.33,0-2.19-.37-3.56-1.33l.64-1.81c1.31.77,2.13,1.17,2.79,1.17.92,0,2.01-.33,2.01-1.08,0-.81-1.39-.91-1.97-.97-1.52-.19-3.51-.53-3.51-2.72,0-2.47,2.32-2.96,3.67-2.96,1.24,0,2.36.4,3.57,1.27l-.61,1.69c-1.04-.68-2.04-1-2.96-1-1.43,0-1.76.57-1.76.92,0,.67,1.53.81,1.95.81,1.4.15,3.56.41,3.56,2.96s-2.36,3.05-3.81,3.05Z" style="fill:#fff;"/><path d="M103.21,21.35h-2.11v-7.43h-3.03v-1.92h8.15v1.92h-3.01v7.43Z" style="fill:#fff;"/><path d="M108.11,12h6.55v1.92h-4.47c0,.61-.01,1.23-.01,1.85h3.79v1.87h-3.77v1.77h4.61v1.93h-6.71v-9.35Z" style="fill:#fff;"/><path d="M120.16,21.38l-3.76-9.06v-.32s2.04,0,2.04,0l2.52,6.48,2.45-6.48h1.99v.32l-3.61,9.06h-1.63Z" style="fill:#fff;"/><path d="M127.37,12h6.55v1.92h-4.47c0,.61-.01,1.23-.01,1.85h3.79v1.87h-3.77v1.77h4.61v1.93h-6.71v-9.35Z" style="fill:#fff;"/><path d="M140.86,22.19l4.96-11.1h1.68l-4.96,11.1h-1.68Z" style="fill:#fff;"/><path d="M149.08,19.35l4.44-2.65c-1.48-.85-2.95-1.72-4.44-2.57v-2.21l6.89,3.92v1.67l-6.89,4.08v-2.23Z" style="fill:#fff;"/></svg>